HIERARCHY
ROOT Hips
{
	OFFSET 0.000000 0.000000 0.000000
	CHANNELS 6 Xposition Yposition Zposition Xrotation Yrotation Zrotation
	JOINT LeftUpLeg_virtual
	{
		OFFSET 0.000000 0.000000 0.000000
		CHANNELS 3 Xrotation Yrotation Zrotation
		JOINT LeftUpLeg
		{
			OFFSET 13.026900 -6.336304 -1.092800
			CHANNELS 3 Xrotation Yrotation Zrotation
			JOINT LeftLeg
			{
				OFFSET 0.524474 -46.096886 9.782700
				CHANNELS 3 Xrotation Yrotation Zrotation
				JOINT LeftFoot
				{
					OFFSET -0.524474 -53.427422 -12.948200
					CHANNELS 3 Xrotation Yrotation Zrotation
					JOINT LeftToeBase
					{
						OFFSET 0.192200 -14.009700 16.364100
						CHANNELS 3 Xrotation Yrotation Zrotation
						JOINT LeftToe_End
						{
							OFFSET -1.784700 -0.561700 9.474800
							CHANNELS 3 Xrotation Yrotation Zrotation
							End Site
							{
								OFFSET 0 0 0
							}
						}
					}
				}
			}
		}
	}
	JOINT RightUpLeg_virtual
	{
		OFFSET 0.000000 0.000000 0.000000
		CHANNELS 3 Xrotation Yrotation Zrotation
		JOINT RightUpLeg
		{
			OFFSET -12.883000 -6.336304 -1.092800
			CHANNELS 3 Xrotation Yrotation Zrotation
			JOINT RightLeg
			{
				OFFSET -0.524587 -46.096825 9.782800
				CHANNELS 3 Xrotation Yrotation Zrotation
				JOINT RightFoot
				{
					OFFSET 0.524587 -53.427383 -12.948300
					CHANNELS 3 Xrotation Yrotation Zrotation
					JOINT RightToeBase
					{
						OFFSET -0.192200 -14.009700 16.364100
						CHANNELS 3 Xrotation Yrotation Zrotation
						JOINT RightToe_End
						{
							OFFSET 1.784700 -0.561700 9.474800
							CHANNELS 3 Xrotation Yrotation Zrotation
							End Site
							{
								OFFSET 0 0 0
							}
						}
					}
				}
			}
		}
	}
	JOINT Spine_virtual
	{
		OFFSET 0.000000 0.000000 0.000000
		CHANNELS 3 Xrotation Yrotation Zrotation
		JOINT Spine
		{
			OFFSET 0.072000 7.257294 -0.789700
			CHANNELS 3 Xrotation Yrotation Zrotation
			JOINT Spine1
			{
				OFFSET 0.000000 12.508769 -0.658067
				CHANNELS 3 Xrotation Yrotation Zrotation
				JOINT Spine1_split
				{
					OFFSET 0.000000 12.508769 -0.658067
					CHANNELS 3 Xrotation Yrotation Zrotation
					JOINT Spine2
					{
						OFFSET 0.000000 12.508769 -0.658067
						CHANNELS 3 Xrotation Yrotation Zrotation
						JOINT Neck_virtual
						{
							OFFSET 0.000000 0.000000 0.000000
							CHANNELS 3 Xrotation Yrotation Zrotation
							JOINT Neck
							{
								OFFSET 0.000000 14.033295 7.520400
								CHANNELS 3 Xrotation Yrotation Zrotation
								JOINT Head
								{
									OFFSET 0.000000 8.198502 5.703100
									CHANNELS 3 Xrotation Yrotation Zrotation
									JOINT HeadTop_End
									{
										OFFSET 0.000000 17.760803 13.332701
										CHANNELS 3 Xrotation Yrotation Zrotation
										End Site
										{
											OFFSET 0 0 0
										}
									}
								}
							}
						}
						JOINT LeftShoulder_virtual
						{
							OFFSET 0.000000 0.000000 0.000000
							CHANNELS 3 Xrotation Yrotation Zrotation
							JOINT LeftShoulder
							{
								OFFSET 6.292450 5.785301 -0.669000
								CHANNELS 3 Xrotation Yrotation Zrotation
								JOINT LeftShoulder_split
								{
									OFFSET 6.292450 5.785301 -0.669000
									CHANNELS 3 Xrotation Yrotation Zrotation
									JOINT LeftArm
									{
										OFFSET 13.907140 -6.093903 1.965100
										CHANNELS 3 Xrotation Yrotation Zrotation
										JOINT LeftForeArm
										{
											OFFSET 34.140198 0.000000 0.000000
											CHANNELS 3 Xrotation Yrotation Zrotation
											JOINT LeftHand
											{
												OFFSET 40.960209 0.000000 0.000000
												CHANNELS 3 Xrotation Yrotation Zrotation
												End Site
												{
													OFFSET 0 0 0
												}
											}
										}
									}
								}
							}
						}
						JOINT RightShoulder_virtual
						{
							OFFSET 0.000000 0.000000 0.000000
							CHANNELS 3 Xrotation Yrotation Zrotation
							JOINT RightShoulder
							{
								OFFSET -6.292450 5.785301 -0.669000
								CHANNELS 3 Xrotation Yrotation Zrotation
								JOINT RightShoulder_split
								{
									OFFSET -6.292450 5.785301 -0.669000
									CHANNELS 3 Xrotation Yrotation Zrotation
									JOINT RightArm
									{
										OFFSET -13.907140 -6.093903 1.965100
										CHANNELS 3 Xrotation Yrotation Zrotation
										JOINT RightForeArm
										{
											OFFSET -34.140198 0.000000 0.000000
											CHANNELS 3 Xrotation Yrotation Zrotation
											JOINT RightHand
											{
												OFFSET -40.960209 0.000000 0.000000
												CHANNELS 3 Xrotation Yrotation Zrotation
												End Site
												{
													OFFSET 0 0 0
												}
											}
										}
									}
								}
							}
						}
					}
				}
			}
		}
	}
}
MOTION
Frames: 4
Frame Time: 0.03333333
16.746243 99.725914 -5.693897 0.000000 0.000000 0.000000 11.434514 7.388012 -8.572021 -55.674965 -1.323513 23.004571 48.256113 1.024159 0.530383 2.212962 1.667894 -15.629440 1.155804 -3.396957 3.279709 0.000000 0.000000 0.000000 12.011646 8.698343 -9.207800 -33.186434 -23.258724 1.448460 44.381531 7.974813 -3.250952 -20.204977 -18.624399 -1.656354 2.905189 1.856259 -12.298282 0.000000 0.000000 0.000000 10.863722 11.972047 -10.405324 11.274259 -10.536898 -4.258628 5.935109 -3.250685 -4.193105 0.076346 -0.181151 0.066047 0.000000 0.000000 0.000000 8.265947 -1.287338 -3.756902 -0.979479 13.016779 -13.660020 -26.581725 14.798807 35.392924 0.000000 0.000000 0.000000 6.388024 -2.430784 -4.214114 3.115820 -7.576050 -12.253305 3.152738 -6.029434 4.209582 -39.951689 14.898589 -15.348764 1.625365 -53.198609 -0.240285 0.000000 0.000000 0.000000 6.381325 -2.768688 -3.701186 -2.618767 3.104132 1.431473 10.956269 7.373422 -0.372879 16.661504 -19.627945 71.747913 -13.367121 66.635373 11.673825 0.000000 0.000000 0.000000 
16.473349 98.226509 -6.641495 0.000000 0.000000 0.000000 10.753980 5.842205 -7.968193 -56.158895 -1.783662 23.296945 50.300187 1.264361 0.001507 1.530826 2.637792 -15.281184 1.549340 -3.262768 3.045938 0.000000 0.000000 0.000000 11.505839 7.585363 -8.620711 -35.586320 -21.393455 1.603075 46.747509 7.143046 -3.416329 -19.934302 -18.924388 -1.208825 3.585994 1.715780 -12.316660 0.000000 0.000000 0.000000 10.009454 11.166501 -9.958850 12.455381 -9.962461 -3.906992 6.436065 -2.815150 -4.208848 0.129493 -0.219229 0.096818 0.000000 0.000000 0.000000 8.196598 -0.888009 -3.878149 -1.052450 12.346800 -12.871346 -25.536219 11.959502 35.716480 0.000000 0.000000 0.000000 6.501666 -2.126405 -4.604245 3.158394 -7.250948 -13.040989 2.554507 -5.804121 4.484200 -35.147505 18.799443 -18.908545 0.863780 -52.279306 -0.443863 0.000000 0.000000 0.000000 6.792837 -2.201297 -3.681484 -2.664672 4.298746 2.802391 10.376797 6.665039 -0.214332 13.687971 -17.105109 70.554741 -12.200267 62.702141 10.507346 0.000000 0.000000 0.000000 
16.096155 97.175751 -7.419727 0.000000 0.000000 0.000000 10.096366 4.267737 -7.496308 -56.310873 -2.205664 23.459316 51.933845 1.626702 -0.392303 1.237148 3.476791 -14.858819 1.268135 -3.130058 2.700075 0.000000 0.000000 0.000000 10.979784 6.312577 -8.132383 -37.509760 -19.429006 2.042743 48.377369 6.308679 -3.444591 -19.426014 -19.039926 -1.020923 4.385176 1.566157 -12.082827 0.000000 0.000000 0.000000 9.189351 10.164322 -9.556830 13.275845 -9.325142 -3.594767 6.852783 -2.383635 -4.261651 0.176392 -0.246876 0.123942 0.000000 0.000000 0.000000 8.074152 -0.481952 -4.040536 -1.428406 11.734274 -11.961801 -23.812365 9.073054 35.469121 0.000000 0.000000 0.000000 6.584704 -1.814675 -4.964897 3.161653 -7.068821 -13.840241 1.809048 -5.322384 4.543255 -30.483001 21.470312 -23.197361 0.253614 -49.850641 -0.585289 0.000000 0.000000 0.000000 7.189245 -1.625757 -3.734401 -2.714088 5.326488 4.210827 9.796455 6.021880 -0.072202 10.304309 -14.405784 69.258651 -10.707214 58.590107 8.920609 0.000000 0.000000 0.000000 
15.641955 96.697769 -8.116299 0.000000 0.000000 0.000000 9.443291 2.823384 -7.185566 -56.194712 -2.588383 23.495726 52.997671 1.973493 -0.605082 1.459344 3.962526 -14.475771 0.282348 -3.023872 2.322033 0.000000 0.000000 0.000000 10.406478 5.018826 -7.780818 -38.814616 -17.582261 2.740088 49.324942 5.525720 -3.350752 -18.607025 -18.912777 -0.951253 4.942461 1.465658 -11.649542 0.000000 0.000000 0.000000 8.497764 9.056750 -9.237278 13.602564 -8.644105 -3.321737 7.147524 -1.981151 -4.322077 0.170495 -0.232909 0.119161 0.000000 0.000000 0.000000 7.874893 -0.104303 -4.218978 -2.040054 11.175753 -10.957128 -21.513926 6.357020 34.686463 0.000000 0.000000 0.000000 6.619470 -1.525821 -5.244213 3.131134 -7.023782 -14.603221 1.134742 -4.795582 4.299976 -26.357097 22.851122 -27.693419 -0.259974 -46.262746 -0.699267 0.000000 0.000000 0.000000 7.513688 -1.085804 -3.852066 -2.755823 6.174706 5.584337 9.387981 5.420176 0.058731 6.718668 -11.567381 68.131349 -9.028434 54.457515 7.099911 0.000000 0.000000 0.000000 
